<svg height="100%" width="100%" id="svg" viewBox="0 0 1440 400" xmlns="http://www.w3.org/2000/svg" class="transition duration-300 ease-in-out delay-150"><path d="M 0,400 C 0,400 0,200 0,200 C 50.744108983799705,175.23987481590575 101.48821796759941,150.4797496318115 169,169 C 236.5117820324006,187.5202503681885 320.791237113402,249.3208762886598 384,261 C 447.208762886598,272.6791237113402 489.34683357879237,234.23674521354934 535,233 C 580.6531664212076,231.76325478645066 629.8214285714286,267.7321428571429 699,266 C 768.1785714285714,264.2678571428571 857.3674521354934,224.83468335787921 926,214 C 994.6325478645066,203.16531664212079 1042.708762886598,220.9291237113402 1093,227 C 1143.291237113402,233.0708762886598 1195.797496318115,227.44882179675994 1254,221 C 1312.202503681885,214.55117820324006 1376.1012518409425,207.27558910162003 1440,200 C 1440,200 1440,400 1440,400 Z" stroke="none" stroke-width="0" fill="#333333ff" class="transition-all duration-300 ease-in-out delay-150" transform="rotate(-180 720 200)"></path></svg>