<svg height="100%" width="100%" id="svg" viewBox="0 0 1440 400" xmlns="http://www.w3.org/2000/svg" class="transition duration-300 ease-in-out delay-150"><path d="M 0,400 C 0,400 0,200 0,200 C 61.46354933726067,168.26877761413846 122.92709867452135,136.5375552282769 172,143 C 221.07290132547865,149.4624447717231 257.7551546391753,194.1185567010309 326,193 C 394.2448453608247,191.8814432989691 494.05228276877756,144.98821796759938 555,131 C 615.9477172312224,117.0117820324006 638.0357142857142,135.92857142857144 691,136 C 743.9642857142858,136.07142857142856 827.8048600883652,117.29749631811487 899,141 C 970.1951399116348,164.70250368188513 1028.7448453608245,230.88144329896906 1088,233 C 1147.2551546391755,235.11855670103094 1207.215758468336,173.17673048600884 1266,157 C 1324.784241531664,140.82326951399116 1382.392120765832,170.41163475699557 1440,200 C 1440,200 1440,400 1440,400 Z" stroke="none" stroke-width="0" fill="#333333ff" class="transition-all duration-300 ease-in-out delay-150" transform="rotate(-180 720 200)"></path></svg>