<svg height="100%" width="100%" id="svg" viewBox="0 0 1440 400" xmlns="http://www.w3.org/2000/svg" class="transition duration-300 ease-in-out delay-150"><path d="M 0,400 C 0,400 0,200 0,200 C 33.06294989189314,216.85987898406108 66.12589978378628,233.7197579681222 112,224 C 157.87410021621372,214.2802420318778 216.55935075674807,177.9808471115723 263,158 C 309.4406492432519,138.0191528884277 343.6366971892215,134.35685358558857 381,164 C 418.3633028107785,193.64314641441143 458.89386048636584,256.5917385460734 511,267 C 563.1061395136342,277.4082614539266 626.7878608653153,235.276192230118 669,219 C 711.2121391346847,202.723807769882 731.9546960523729,212.30349253345466 771,224 C 810.0453039476271,235.69650746654534 867.3933549251929,249.50983763606328 922,236 C 976.6066450748071,222.49016236393672 1028.4718842468553,181.6571569222923 1067,161 C 1105.5281157531447,140.3428430777077 1130.719108087385,139.86153467476746 1168,163 C 1205.280891912615,186.13846532523254 1254.6516834036042,232.89670437863788 1302,243 C 1349.3483165963958,253.10329562136212 1394.6741582981979,226.55164781068106 1440,200 C 1440,200 1440,400 1440,400 Z" stroke="none" stroke-width="0" fill="#212429ff" class="transition-all duration-300 ease-in-out delay-150" transform="rotate(-180 720 200)"></path></svg>